<svg width="19" height="19" viewBox="0 0 19 19" fill="none" xmlns="http://www.w3.org/2000/svg">
<path opacity="0.5" d="M10.7312 1.4243C11.1729 0.975493 11.6991 0.618575 12.2795 0.374127C12.8598 0.129679 13.4828 0.00253896 14.1126 3.76403e-05C14.7423 -0.00246367 15.3663 0.119724 15.9485 0.359553C16.5308 0.599383 17.0598 0.95211 17.5051 1.39739C17.9504 1.84268 18.3031 2.37171 18.5429 2.95398C18.7828 3.53624 18.905 4.16023 18.9025 4.78995C18.9 5.41967 18.7728 6.04267 18.5284 6.62301C18.2839 7.20336 17.927 7.72957 17.4782 8.1713L14.4482 11.2013L13.0332 9.7883L16.0632 6.7573C16.583 6.23774 16.8752 5.53296 16.8754 4.79801C16.8755 4.06305 16.5838 3.35812 16.0642 2.8383C15.5446 2.31848 14.8399 2.02634 14.1049 2.02615C13.37 2.02596 12.665 2.31774 12.1452 2.8373L9.1142 5.8683L7.7002 4.4543L10.7312 1.4243ZM12.8512 7.4643L7.4362 12.8783L6.0222 11.4643L11.4362 6.0503L12.8512 7.4643ZM5.8412 9.1403L2.8112 12.1713C2.29138 12.6911 1.99934 13.3962 1.99934 14.1313C1.99934 14.8664 2.29138 15.5715 2.8112 16.0913C3.33103 16.6111 4.03606 16.9032 4.7712 16.9032C5.50635 16.9032 6.21138 16.6111 6.7312 16.0913L9.7612 13.0603L11.1752 14.4743L8.1452 17.5043C7.25049 18.3991 6.03696 18.9019 4.77156 18.902C3.50616 18.9021 2.29254 18.3995 1.3977 17.5048C0.502863 16.6101 9.37813e-05 15.3966 1.31184e-08 14.1312C-9.37551e-05 12.8658 0.502495 11.6521 1.3972 10.7573L4.4272 7.7273L5.8412 9.1403Z" fill="#303235"/>
</svg>
