<svg width="14" height="14" viewBox="0 0 14 14" fill="none" xmlns="http://www.w3.org/2000/svg">
<path d="M6.9998 8.4L2.0998 13.3C1.91647 13.4833 1.68314 13.575 1.3998 13.575C1.11647 13.575 0.883138 13.4833 0.699804 13.3C0.516471 13.1167 0.424805 12.8833 0.424805 12.6C0.424805 12.3167 0.516471 12.0833 0.699804 11.9L5.5998 7L0.699804 2.1C0.516471 1.91667 0.424805 1.68334 0.424805 1.4C0.424805 1.11667 0.516471 0.883336 0.699804 0.700003C0.883138 0.516669 1.11647 0.425003 1.3998 0.425003C1.68314 0.425003 1.91647 0.516669 2.0998 0.700003L6.9998 5.6L11.8998 0.700003C12.0831 0.516669 12.3165 0.425003 12.5998 0.425003C12.8831 0.425003 13.1165 0.516669 13.2998 0.700003C13.4831 0.883336 13.5748 1.11667 13.5748 1.4C13.5748 1.68334 13.4831 1.91667 13.2998 2.1L8.3998 7L13.2998 11.9C13.4831 12.0833 13.5748 12.3167 13.5748 12.6C13.5748 12.8833 13.4831 13.1167 13.2998 13.3C13.1165 13.4833 12.8831 13.575 12.5998 13.575C12.3165 13.575 12.0831 13.4833 11.8998 13.3L6.9998 8.4Z" fill="#303235"/>
</svg>
