<svg width="20" height="20" viewBox="0 0 20 20" fill="none" xmlns="http://www.w3.org/2000/svg">
<path d="M9.99992 6.66678L3.33325 13.3335V16.6668L6.66659 16.6668L13.3332 10.0001M9.99992 6.66678L12.3904 4.27624L12.3919 4.27482C12.721 3.94575 12.8858 3.78093 13.0758 3.71919C13.2431 3.66481 13.4235 3.66481 13.5908 3.71919C13.7807 3.78088 13.9453 3.94552 14.2739 4.27412L15.7238 5.72396C16.0538 6.05397 16.2189 6.21905 16.2807 6.40933C16.3351 6.57669 16.335 6.75698 16.2807 6.92435C16.2189 7.11449 16.054 7.27932 15.7245 7.60887L15.7238 7.60957L13.3332 10.0001M9.99992 6.66678L13.3332 10.0001" stroke="#303235" stroke-width="2" stroke-linecap="round" stroke-linejoin="round"/>
</svg>
