<svg width="24" height="24" viewBox="0 0 24 24" fill="none" xmlns="http://www.w3.org/2000/svg">
<rect width="24" height="24" rx="4" fill="white" fill-opacity="0.3"/>
<path d="M7.33333 16.6667H8.28333L14.8 10.15L13.85 9.2L7.33333 15.7167V16.6667ZM6 18V15.1667L14.8 6.38333C14.9333 6.26111 15.0806 6.16667 15.2417 6.1C15.4028 6.03333 15.5722 6 15.75 6C15.9278 6 16.1 6.03333 16.2667 6.1C16.4333 6.16667 16.5778 6.26667 16.7 6.4L17.6167 7.33333C17.75 7.45556 17.8472 7.6 17.9083 7.76667C17.9694 7.93333 18 8.1 18 8.26667C18 8.44444 17.9694 8.61389 17.9083 8.775C17.8472 8.93611 17.75 9.08333 17.6167 9.21667L8.83333 18H6ZM14.3167 9.68333L13.85 9.2L14.8 10.15L14.3167 9.68333Z" fill="white"/>
</svg>
