<svg width="197" height="30" viewBox="0 0 197 30" fill="none" xmlns="http://www.w3.org/2000/svg">
<g clip-path="url(#clip0_15_8)">
<path d="M30.779 0H0V5.9993H30.779V0Z" fill="#FCB53B"/>
<path d="M30.779 11.9987H0V17.9981H30.779V11.9987Z" fill="#F57F29"/>
<path d="M30.779 23.9973H0V29.9967H30.779V23.9973Z" fill="#E32213"/>
<path d="M150.386 6.0049L155.248 17.9918H145.51L150.386 6.0049ZM145.669 0.0032959L133.854 29.9999H140.91L143.221 23.9872L157.551 23.9931L159.862 29.9999H166.881L154.378 0.0032959H145.669Z" fill="black"/>
<path d="M43.0879 0.00341797V30H68.3404V24.0045L49.2609 23.994V17.9984H68.3404V11.9875H49.2609V6.00712L68.3404 5.98702V0.00341797H43.0879Z" fill="black"/>
<mask id="mask0_15_8" style="mask-type:luminance" maskUnits="userSpaceOnUse" x="0" y="0" width="197" height="30">
<path d="M197 0H0V30H197V0Z" fill="white"/>
</mask>
<g mask="url(#mask0_15_8)">
<path d="M171.148 29.9762H183.083H187.819C192.79 29.9762 197.001 26.6828 197.001 21.0726C197.001 18.7603 196.091 16.4915 193.25 14.9898C196.539 13.125 197.001 11.2192 197.001 8.907C197.001 4.0268 192.79 0.0032959 187.819 0.0032959H183.083H171.149V6.1037H187.533C189.205 6.1037 190.56 7.4248 190.56 9.0545C190.56 10.6842 189.205 12.0054 187.533 12.0054H184.261H174.218V17.974H184.261H187.533C189.205 17.974 190.56 19.2952 190.56 20.9248C190.56 22.5546 189.205 23.8758 187.533 23.8758H171.149L171.148 29.9762Z" fill="black"/>
</g>
<mask id="mask1_15_8" style="mask-type:luminance" maskUnits="userSpaceOnUse" x="0" y="0" width="197" height="30">
<path d="M197 0H0V30H197V0Z" fill="white"/>
</mask>
<g mask="url(#mask1_15_8)">
<path d="M125.34 0.0032959H120.603H108.361V29.9999H114.52V17.974H121.782H125.34C130.432 17.974 134.56 13.9511 134.56 8.9886C134.56 4.0261 130.432 0.0032959 125.34 0.0032959ZM125.053 12.0054H114.512V6.1037H125.053C126.725 6.1037 128.081 7.4248 128.081 9.0545C128.081 10.6842 126.725 12.0054 125.053 12.0054Z" fill="black"/>
</g>
<mask id="mask2_15_8" style="mask-type:luminance" maskUnits="userSpaceOnUse" x="0" y="-1" width="197" height="31">
<path d="M197 -0.534256H0V29.5342H197V-0.534256Z" fill="white"/>
</mask>
<g mask="url(#mask2_15_8)">
<path d="M98.008 14.9897C101.296 13.1249 101.759 11.2192 101.759 8.90698C101.759 4.02678 97.5476 0.00328255 92.5768 0.00328255L92.577 0.00338255C92.5756 0.00338255 92.5745 0.00328255 92.5731 0.00328255H75.7482V29.9761H92.8808C97.8517 29.9761 102.063 26.6827 102.063 21.0725C102.063 18.7603 100.848 16.4917 98.008 14.9897ZM81.8987 6.10378H92.2862C93.9585 6.10378 95.314 7.42488 95.314 9.05458C95.314 10.6843 93.9585 12.0055 92.2862 12.0055H89.1688H81.8987V6.10378ZM92.5942 23.8758H81.8987V17.974H92.5941C94.2663 17.974 95.6218 19.2952 95.6218 20.9249C95.6218 22.5546 94.2663 23.8758 92.5942 23.8758Z" fill="black"/>
</g>
</g>
<defs>
<clipPath id="clip0_15_8">
<rect width="197" height="30" fill="white"/>
</clipPath>
</defs>
</svg>
