<svg width="12" height="12" viewBox="0 0 12 12" fill="none" xmlns="http://www.w3.org/2000/svg">
<path d="M5.25192 12C5.03997 12 4.8623 11.9281 4.71892 11.7844C4.57554 11.6406 4.50385 11.4625 4.50385 11.25V6.75L0.165016 1.2C-0.0220022 0.95 -0.050055 0.6875 0.0808581 0.4125C0.211771 0.1375 0.439311 0 0.763476 0H11.2365C11.5607 0 11.7882 0.1375 11.9191 0.4125C12.0501 0.6875 12.022 0.95 11.835 1.2L7.49615 6.75V11.25C7.49615 11.4625 7.42446 11.6406 7.28108 11.7844C7.1377 11.9281 6.96003 12 6.74807 12H5.25192ZM6 6.225L9.70297 1.5H2.29703L6 6.225Z" fill="#BCBEC7"/>
</svg>
