<svg width="12" height="12" viewBox="0 0 12 12" fill="none" xmlns="http://www.w3.org/2000/svg">
<path d="M6 6C5.175 6 4.46875 5.70625 3.88125 5.11875C3.29375 4.53125 3 3.825 3 3C3 2.175 3.29375 1.46875 3.88125 0.88125C4.46875 0.29375 5.175 0 6 0C6.825 0 7.53125 0.29375 8.11875 0.88125C8.70625 1.46875 9 2.175 9 3C9 3.825 8.70625 4.53125 8.11875 5.11875C7.53125 5.70625 6.825 6 6 6ZM0 12V9.9C0 9.475 0.1095 9.0845 0.3285 8.7285C0.5475 8.3725 0.838 8.1005 1.2 7.9125C1.975 7.525 2.7625 7.2345 3.5625 7.041C4.3625 6.8475 5.175 6.7505 6 6.75C6.825 6.7495 7.6375 6.8465 8.4375 7.041C9.2375 7.2355 10.025 7.526 10.8 7.9125C11.1625 8.1 11.4532 8.372 11.6722 8.7285C11.8912 9.085 12.0005 9.4755 12 9.9V12H0Z" fill="#303235"/>
</svg>
