<svg width="10" height="10" viewBox="0 0 10 10" fill="none" xmlns="http://www.w3.org/2000/svg">
<path opacity="0.5" d="M2.01111 4.32778C2.81111 5.9 4.1 7.18333 5.67222 7.98889L6.89444 6.76667C7.04444 6.61667 7.26667 6.56667 7.46111 6.63333C8.08333 6.83889 8.75556 6.95 9.44444 6.95C9.75 6.95 10 7.2 10 7.50556V9.44444C10 9.75 9.75 10 9.44444 10C4.22778 10 0 5.77222 0 0.555556C0 0.25 0.25 0 0.555556 0H2.5C2.80556 0 3.05556 0.25 3.05556 0.555556C3.05556 1.25 3.16667 1.91667 3.37222 2.53889C3.43333 2.73333 3.38889 2.95 3.23333 3.10556L2.01111 4.32778Z" fill="#1D558F"/>
</svg>
