<svg width="24" height="24" viewBox="0 0 24 24" fill="none" xmlns="http://www.w3.org/2000/svg">
<g clip-path="url(#clip0_1_506)">
<rect width="24" height="24" rx="12" fill="#D9D9D9"/>
<path d="M12 15.6418C10.4875 15.6418 9.19271 15.0718 8.11562 13.9319C7.03854 12.792 6.5 11.4216 6.5 9.8209C6.5 8.22015 7.03854 6.84981 8.11562 5.70989C9.19271 4.56996 10.4875 4 12 4C13.5125 4 14.8073 4.56996 15.8844 5.70989C16.9615 6.84981 17.5 8.22015 17.5 9.8209C17.5 11.4216 16.9615 12.792 15.8844 13.9319C14.8073 15.0718 13.5125 15.6418 12 15.6418ZM1 30V23.209C1 22.3843 1.20075 21.6266 1.60225 20.9359C2.00375 20.2451 2.53633 19.7174 3.2 19.3526C4.62083 18.6007 6.06458 18.0371 7.53125 17.6616C8.99792 17.2862 10.4875 17.098 12 17.097C13.5125 17.096 15.0021 17.2843 16.4687 17.6616C17.9354 18.039 19.3792 18.6027 20.8 19.3526C21.4646 19.7164 21.9976 20.2442 22.3991 20.9359C22.8006 21.6276 23.0009 22.3853 23 23.209V30H1Z" fill="#8A8A8A"/>
</g>
<defs>
<clipPath id="clip0_1_506">
<rect width="24" height="24" rx="12" fill="white"/>
</clipPath>
</defs>
</svg>
